#!OML:ASF F:\VICON\USERDATA\Patient Classification 1\PLAYGROUND\JustinFriday\JustinFriday.ASF
:FULLY-SPECIFIED
:DEGREES
2222
root 6.85596 20.6599 50.8013 -707.141 -216.642 8.04499
lowerback 11.0326 -4.84147 8.99716
upperback 5.78154 -5.02435 1.4186
thorax -0.737637 -2.14585 -2.94117
lowerneck -6.75525 -5.06792 -5.98847
upperneck -31.9682 -1.4456 10.0669
head -8.6671 0.495519 4.43611
rclavicle 1.88845e-015 -4.33351e-014
rhumerus 33.2011 18.7913 -61.6138
rradius 93.1586
rwrist 360.192
rhand -26.1477 -19.301
rfingers 7.12502
rthumb 0.403126 -49.2804
lclavicle 1.88845e-015 -4.33351e-014
lhumerus 26.1547 45.7297 72.4085
lradius 63.3946
lwrist 35.8278
lhand -14.2784 -3.98559
lfingers 7.12502
lthumb 11.8607 25.6585
rfemur -29.4628 -23.9318 32.4405
rtibia 67.6747
rfoot 5.55769 3.47997
rtoes -7.64237
lfemur -53.6242 1.40831 -24.6268
ltibia 66.5697
lfoot -24.9081 15.2203
ltoes 2.99778
2223
root 7.00659 20.8133 50.821 -708.187 -218.832 8.82283
lowerback 12.2544 -4.35439 8.1599
upperback 6.72059 -4.30661 0.757326
thorax -0.32234 -1.71956 -3.22848
lowerneck -7.57678 -4.76028 -5.12237
upperneck -31.7471 -0.777346 10.4478
head -8.51601 0.740554 4.36959
rclavicle 2.62396e-014 -2.38542e-015
rhumerus 35.5825 18.6002 -62.1658
rradius 93.0612
rwrist 360.253
rhand -26.1573 -19.6409
rfingers 7.12502
rthumb 0.39378 -49.6202
lclavicle 2.62396e-014 -2.38542e-015
lhumerus 25.8464 45.7722 70.7579
lradius 63.2035
lwrist 36.2905
lhand -14.0348 -4.19169
lfingers 7.12502
lthumb 12.0956 25.4387
rfemur -28.7816 -21.2907 31.8392
rtibia 69.6058
rfoot 4.60379 3.3216
rtoes -6.72265
lfemur -50.6953 4.77149 -23.7869
ltibia 65.1871
lfoot -24.9133 14.3912
ltoes 4.8305
2224
root 7.156 20.9652 50.8422 -709.579 -220.961 9.30476
lowerback 13.6561 -3.88758 7.1452
upperback 7.64028 -3.60988 0.0221445
thorax -0.0159601 -1.30511 -3.49129
lowerneck -8.33506 -4.46678 -4.30064
upperneck -31.5702 -0.125784 10.8938
head -8.38969 0.984883 4.34018
rclavicle -3.97569e-016 3.26007e-014
rhumerus 38.0045 18.2836 -62.9367
rradius 92.8017
rwrist 360.494
rhand -26.5085 -19.4763
rfingers 7.12502
rthumb 0.0545965 -49.456
lclavicle -3.97569e-016 3.26007e-014
lhumerus 25.6249 45.7287 69.0517
lradius 62.7963
lwrist 36.6627
lhand -13.5586 -4.59898
lfingers 7.12502
lthumb 12.5547 25.0038
rfemur -28.0275 -18.8248 31.1676
rtibia 71.5013
rfoot 3.43694 2.95195
rtoes -7.36771
lfemur -47.4373 7.99406 -23.0166
ltibia 63.6489
lfoot -24.5884 13.6708
ltoes 6.46676
2225
root 7.29536 21.0928 50.8591 -710.661 -222.64 9.87403
lowerback 14.7777 -3.49251 6.40201
upperback 8.38893 -3.01023 -0.536588
thorax 0.252375 -0.943839 -3.72558
lowerneck -9.26693 -4.22461 -3.91681
upperneck -30.9072 0.344069 11.4084
head -8.03649 1.17513 4.40875
rclavicle -9.54166e-015 4.29375e-014
rhumerus 40.4023 17.9898 -63.444
rradius 92.5451
rwrist 360.674
rhand -26.9435 -19.6356
rfingers 7.12502
rthumb -0.365543 -49.615
lclavicle -9.54166e-015 4.29375e-014
lhumerus 25.6723 45.7842 67.8387
lradius 62.256
lwrist 36.619
lhand -13.0042 -5.0447
lfingers 7.12502
lthumb 13.0892 24.5246
rfemur -27.8307 -16.6463 30.9182
rtibia 73.5794
rfoot 2.18859 2.10843
rtoes -7.32144
lfemur -44.5099 10.6393 -22.0453
ltibia 62.0662
lfoot -24.1164 12.9362
ltoes 6.12446
2226
root 7.41964 21.2254 50.8637 -711.592 -223.662 10.2286
lowerback 15.5983 -3.23059 5.81892
upperback 8.92541 -2.60964 -0.929863
thorax 0.439407 -0.697906 -3.85848
lowerneck -9.74206 -3.92563 -3.13996
upperneck -30.7449 0.83506 11.4695
head -7.95663 1.36352 4.26712
rclavicle -3.89618e-014 4.21423e-014
rhumerus 42.6209 17.7269 -63.5755
rradius 92.2969
rwrist 360.684
rhand -27.3594 -20.0487
rfingers 7.12502
rthumb -0.767245 -50.027
lclavicle -3.89618e-014 4.21423e-014
lhumerus 25.5808 45.8321 66.981
lradius 61.8265
lwrist 36.571
lhand -12.6832 -5.47792
lfingers 7.12502
lthumb 13.3986 24.0712
rfemur -28.1337 -15.0672 30.7264
rtibia 75.7357
rfoot 0.844578 0.938631
rtoes -6.09703
lfemur -41.9405 12.9041 -21.3166
ltibia 60.4141
lfoot -23.7637 12.0471
ltoes 3.54034
2227
root 7.52082 21.3525 50.8564 -712.19 -223.55 10.3469
lowerback 16.0343 -3.20348 5.52884
upperback 9.15076 -2.54173 -1.03248
thorax 0.46439 -0.645504 -3.80544
lowerneck -10.3483 -3.70751 -2.80015
upperneck -30.1337 1.04798 11.3594
head -7.66548 1.45954 4.14355
rclavicle 6.75868e-014 7.95139e-015
rhumerus 44.5777 17.3001 -63.5783
rradius 91.9177
rwrist 360.547
rhand -27.7336 -20.2629
rfingers 7.12502
rthumb -1.12857 -50.2397
lclavicle 6.75868e-014 7.95139e-015
lhumerus 24.969 45.4691 66.2196
lradius 61.3344
lwrist 36.8096
lhand -12.6109 -6.24524
lfingers 7.12502
lthumb 13.4683 23.2993
rfemur -29.3079 -14.6134 30.6252
rtibia 78.0616
rfoot -0.718575 -0.201197
rtoes -4.94521
lfemur -39.9605 13.7041 -20.7877
ltibia 58.7505
lfoot -23.2549 11.2864
ltoes 2.33939
2228
root 7.60225 21.4815 50.8424 -712.574 -222.568 10.2535
lowerback 16.2112 -3.34347 5.42047
upperback 9.14701 -2.71258 -0.88541
thorax 0.359835 -0.735131 -3.55568
lowerneck -10.8068 -3.54235 -2.59096
upperneck -29.51 1.0935 10.993
head -7.38285 1.49004 3.963
rclavicle 3.18055e-014 1.03368e-014
rhumerus 46.3042 16.761 -63.2543
rradius 91.5657
rwrist 359.976
rhand -28.0244 -20.1867
rfingers 7.12502
rthumb -1.40943 -50.1618
lclavicle 3.18055e-014 1.03368e-014
lhumerus 24.1639 44.8961 65.7571
lradius 60.728
lwrist 37.0379
lhand -12.3785 -7.2242
lfingers 7.12502
lthumb 13.6922 22.3054
rfemur -31.101 -16.548 30.279
rtibia 80.4105
rfoot -2.35533 -0.753801
rtoes -4.42947
lfemur -38.5604 13.0605 -20.4552
ltibia 57.1274
lfoot -22.5947 10.2097
ltoes 5.48217
